<svg width="140" height="33" viewBox="0 0 140 33" fill="none" xmlns="http://www.w3.org/2000/svg">
<path d="M0.536957 5.11836H4.62379C5.95624 5.11836 7.02021 5.5161 7.8157 6.31159C8.63108 7.10709 9.03877 8.29038 9.03877 9.86147V12.5761C9.03877 13.471 8.84984 14.2168 8.47198 14.8134C8.09412 15.41 7.56711 15.8277 6.89094 16.0663V16.1856C7.587 16.4044 8.11401 16.822 8.47198 17.4385C8.84984 18.0351 9.03877 18.7809 9.03877 19.6758V23.0467C9.03877 23.345 9.03877 23.6235 9.03877 23.882C9.05866 24.1207 9.0686 24.3494 9.0686 24.5681C9.08849 24.7869 9.10837 25.0056 9.12826 25.2244C9.16804 25.4233 9.21775 25.642 9.27742 25.8807V26H5.75737C5.67782 25.463 5.61816 24.9857 5.57838 24.5681C5.53861 24.1505 5.51872 23.6434 5.51872 23.0467V18.7511C5.51872 18.3136 5.44911 18.0053 5.3099 17.8263C5.17069 17.6473 4.94199 17.5578 4.62379 17.5578H4.02717V26H0.536957V5.11836ZM4.02717 7.92246V14.7239H4.62379C4.94199 14.7239 5.17069 14.6344 5.3099 14.4554C5.44911 14.2764 5.51872 13.9583 5.51872 13.5008V9.1157C5.51872 8.69807 5.44911 8.39976 5.3099 8.22077C5.17069 8.0219 4.94199 7.92246 4.62379 7.92246H4.02717ZM18.5676 26H15.9127L15.6144 23.7627H15.4951C15.3956 24.1207 15.2564 24.4587 15.0774 24.7769C14.8984 25.0951 14.6996 25.3835 14.4808 25.642C14.2621 25.8807 14.0135 26.0696 13.735 26.2088C13.4566 26.3679 13.1484 26.4475 12.8103 26.4475C12.0943 26.4475 11.5176 26.0597 11.0801 25.2841C10.6625 24.5085 10.4536 23.3848 10.4536 21.9132V20.4514C10.4536 18.9798 10.6625 17.8661 11.0801 17.1104C11.5176 16.3348 12.1341 15.947 12.9296 15.947C13.4666 15.947 13.924 16.126 14.3018 16.4839C14.6797 16.8419 14.9581 17.349 15.1371 18.0053H15.2564V13.471C15.2564 13.0335 15.1968 12.7252 15.0774 12.5463C14.9581 12.3474 14.7791 12.2479 14.5405 12.2479C14.2819 12.2479 14.093 12.3474 13.9737 12.5463C13.8743 12.7252 13.8245 13.0235 13.8245 13.4412V15.1117H10.4835V13.9483C10.4835 12.4568 10.8315 11.3331 11.5276 10.5774C12.2435 9.8217 13.2379 9.44384 14.5106 9.44384C15.8033 9.44384 16.7977 9.8217 17.4937 10.5774C18.2097 11.3331 18.5676 12.4568 18.5676 13.9483V26ZM14.3913 23.6135C14.6499 23.6135 14.8587 23.4644 15.0178 23.1661C15.1769 22.8678 15.2564 22.4103 15.2564 21.7938V19.9443C15.2564 19.5665 15.1769 19.2781 15.0178 19.0792C14.8786 18.8605 14.6896 18.7511 14.451 18.7511C14.2322 18.7511 14.0632 18.8505 13.9439 19.0494C13.8444 19.2284 13.7947 19.5267 13.7947 19.9443V22.3905C13.7947 22.8479 13.8444 23.1661 13.9439 23.345C14.0433 23.524 14.1924 23.6135 14.3913 23.6135ZM20.1116 26V9.8913H23.4229V26H20.1116ZM20.1116 9.14553V5.41667H23.4229V9.14553H20.1116ZM33.1039 26H29.7629V13.471C29.7629 13.0335 29.7032 12.7252 29.5839 12.5463C29.4844 12.3474 29.3253 12.2479 29.1066 12.2479C28.8878 12.2479 28.6989 12.3673 28.5398 12.6059C28.4006 12.8446 28.331 13.2125 28.331 13.7097V26H25.0198V9.8913H27.6747L28.0327 11.5618H28.152C28.3708 10.8857 28.689 10.3686 29.1066 10.0106C29.5441 9.63277 30.0413 9.44384 30.5981 9.44384C31.3737 9.44384 31.9803 9.83164 32.4178 10.6072C32.8752 11.3828 33.1039 12.5065 33.1039 13.9781V26ZM40.2298 27.3126C40.1105 28.1081 39.9613 28.7743 39.7823 29.3112C39.6232 29.8681 39.3249 30.3056 38.8874 30.6238C38.4698 30.9619 37.893 31.2005 37.1572 31.3397C36.4214 31.4789 35.427 31.5486 34.1741 31.5486V28.7444C34.6912 28.7444 35.0889 28.7047 35.3674 28.6251C35.6657 28.5655 35.8844 28.4362 36.0236 28.2373C36.1827 28.0583 36.2722 27.7998 36.2921 27.4617C36.312 27.1435 36.3021 26.7259 36.2623 26.2088L34.025 9.8913H37.545L38.1416 19.3775L38.2311 21.3762H38.3803L38.4996 19.3775L39.0962 9.8913H42.6163L40.4088 25.9403L40.2298 27.3126ZM52.3613 26.5264C52.3613 26.5264 52.3613 26.3851 52.3613 26.1024V25.1226V24.1429V23.7188H52.7854H53.7652H54.7449H55.169C55.169 23.7188 55.169 23.8602 55.169 24.1429V25.1226V26.1024V26.5264C55.169 26.5264 55.0276 26.5264 54.7449 26.5264H53.7652H52.7854H52.3613ZM59.3804 26.5264C59.3804 26.5264 59.3804 26.3851 59.3804 26.1024V25.1226V24.1429V23.7188H59.8045H60.7842H61.7639H62.188C62.188 23.7188 62.188 23.8602 62.188 24.1429V25.1226V26.1024V26.5264C62.188 26.5264 62.0466 26.5264 61.7639 26.5264H60.7842H59.8045H59.3804ZM51.484 24.7717C51.484 24.7717 51.484 24.6303 51.484 24.3476V23.3679V22.3881V21.9641H51.908H52.8878H53.8675H54.2916C54.2916 21.9641 54.2916 22.1054 54.2916 22.3881V23.3679V24.3476V24.7717C54.2916 24.7717 54.1502 24.7717 53.8675 24.7717H52.8878H51.908H51.484ZM53.2387 24.7717C53.2387 24.7717 53.2387 24.6303 53.2387 24.3476V23.3679V22.3881V21.9641H53.6628H54.6425H55.6223H56.0463C56.0463 21.9641 56.0463 22.1054 56.0463 22.3881V23.3679V24.3476V24.7717C56.0463 24.7717 55.905 24.7717 55.6223 24.7717H54.6425H53.6628H53.2387ZM58.503 24.7717C58.503 24.7717 58.503 24.6303 58.503 24.3476V23.3679V22.3881V21.9641H58.9271H59.9068H60.8866H61.3106C61.3106 21.9641 61.3106 22.1054 61.3106 22.3881V23.3679V24.3476V24.7717C61.3106 24.7717 61.1693 24.7717 60.8866 24.7717H59.9068H58.9271H58.503ZM60.2578 24.7717C60.2578 24.7717 60.2578 24.6303 60.2578 24.3476V23.3679V22.3881V21.9641H60.6818H61.6616H62.6413H63.0654C63.0654 21.9641 63.0654 22.1054 63.0654 22.3881V23.3679V24.3476V24.7717C63.0654 24.7717 62.924 24.7717 62.6413 24.7717H61.6616H60.6818H60.2578ZM50.6066 23.0169C50.6066 23.0169 50.6066 22.8756 50.6066 22.5928V21.6131V20.6334V20.2093H51.0307H52.0104H52.9901H53.4142C53.4142 20.2093 53.4142 20.3506 53.4142 20.6334V21.6131V22.5928V23.0169C53.4142 23.0169 53.2728 23.0169 52.9901 23.0169H52.0104H51.0307H50.6066ZM54.1161 23.0169C54.1161 23.0169 54.1161 22.8756 54.1161 22.5928V21.6131V20.6334V20.2093H54.5402H55.5199H56.4997H56.9237C56.9237 20.2093 56.9237 20.3506 56.9237 20.6334V21.6131V22.5928V23.0169C56.9237 23.0169 56.7824 23.0169 56.4997 23.0169H55.5199H54.5402H54.1161ZM57.6256 23.0169C57.6256 23.0169 57.6256 22.8756 57.6256 22.5928V21.6131V20.6334V20.2093H58.0497H59.0294H60.0092H60.4332C60.4332 20.2093 60.4332 20.3506 60.4332 20.6334V21.6131V22.5928V23.0169C60.4332 23.0169 60.2919 23.0169 60.0092 23.0169H59.0294H58.0497H57.6256ZM61.1351 23.0169C61.1351 23.0169 61.1351 22.8756 61.1351 22.5928V21.6131V20.6334V20.2093H61.5592H62.539H63.5187H63.9428C63.9428 20.2093 63.9428 20.3506 63.9428 20.6334V21.6131V22.5928V23.0169C63.9428 23.0169 63.8014 23.0169 63.5187 23.0169H62.539H61.5592H61.1351ZM49.7292 21.2621C49.7292 21.2621 49.7292 21.1208 49.7292 20.8381V19.8583V18.8786V18.4545H50.1533H51.133H52.1128H52.5368C52.5368 18.4545 52.5368 18.5959 52.5368 18.8786V19.8583V20.8381V21.2621C52.5368 21.2621 52.3955 21.2621 52.1128 21.2621H51.133H50.1533H49.7292ZM54.9935 21.2621C54.9935 21.2621 54.9935 21.1208 54.9935 20.8381V19.8583V18.8786V18.4545H55.4176H56.3973H57.377H57.8011C57.8011 18.4545 57.8011 18.5959 57.8011 18.8786V19.8583V20.8381V21.2621C57.8011 21.2621 57.6597 21.2621 57.377 21.2621H56.3973H55.4176H54.9935ZM56.7482 21.2621C56.7482 21.2621 56.7482 21.1208 56.7482 20.8381V19.8583V18.8786V18.4545H57.1723H58.1521H59.1318H59.5559C59.5559 18.4545 59.5559 18.5959 59.5559 18.8786V19.8583V20.8381V21.2621C59.5559 21.2621 59.4145 21.2621 59.1318 21.2621H58.1521H57.1723H56.7482ZM62.0125 21.2621C62.0125 21.2621 62.0125 21.1208 62.0125 20.8381V19.8583V18.8786V18.4545H62.4366H63.4163H64.3961H64.8201C64.8201 18.4545 64.8201 18.5959 64.8201 18.8786V19.8583V20.8381V21.2621C64.8201 21.2621 64.6788 21.2621 64.3961 21.2621H63.4163H62.4366H62.0125ZM48.8518 19.5074C48.8518 19.5074 48.8518 19.366 48.8518 19.0833V18.1036V17.1238V16.6998H49.2759H50.2556H51.2354H51.6594C51.6594 16.6998 51.6594 16.8411 51.6594 17.1238V18.1036V19.0833V19.5074C51.6594 19.5074 51.5181 19.5074 51.2354 19.5074H50.2556H49.2759H48.8518ZM55.8709 19.5074C55.8709 19.5074 55.8709 19.366 55.8709 19.0833V18.1036V17.1238V16.6998H56.2949H57.2747H58.2544H58.6785C58.6785 16.6998 58.6785 16.8411 58.6785 17.1238V18.1036V19.0833V19.5074C58.6785 19.5074 58.5371 19.5074 58.2544 19.5074H57.2747H56.2949H55.8709ZM62.8899 19.5074C62.8899 19.5074 62.8899 19.366 62.8899 19.0833V18.1036V17.1238V16.6998H63.314H64.2937H65.2735H65.6975C65.6975 16.6998 65.6975 16.8411 65.6975 17.1238V18.1036V19.0833V19.5074C65.6975 19.5074 65.5562 19.5074 65.2735 19.5074H64.2937H63.314H62.8899ZM48.8518 17.7526C48.8518 17.7526 48.8518 17.6113 48.8518 17.3286V16.3488V15.3691V14.945H49.2759H50.2556H51.2354H51.6594C51.6594 14.945 51.6594 15.0864 51.6594 15.3691V16.3488V17.3286V17.7526C51.6594 17.7526 51.5181 17.7526 51.2354 17.7526H50.2556H49.2759H48.8518ZM55.8709 17.7526C55.8709 17.7526 55.8709 17.6113 55.8709 17.3286V16.3488V15.3691V14.945H56.2949H57.2747H58.2544H58.6785C58.6785 14.945 58.6785 15.0864 58.6785 15.3691V16.3488V17.3286V17.7526C58.6785 17.7526 58.5371 17.7526 58.2544 17.7526H57.2747H56.2949H55.8709ZM62.8899 17.7526C62.8899 17.7526 62.8899 17.6113 62.8899 17.3286V16.3488V15.3691V14.945H63.314H64.2937H65.2735H65.6975C65.6975 14.945 65.6975 15.0864 65.6975 15.3691V16.3488V17.3286V17.7526C65.6975 17.7526 65.5562 17.7526 65.2735 17.7526H64.2937H63.314H62.8899ZM48.8518 15.9979C48.8518 15.9979 48.8518 15.8565 48.8518 15.5738V14.5941V13.6143V13.1903H49.2759H50.2556H51.2354H51.6594C51.6594 13.1903 51.6594 13.3316 51.6594 13.6143V14.5941V15.5738V15.9979C51.6594 15.9979 51.5181 15.9979 51.2354 15.9979H50.2556H49.2759H48.8518ZM55.8709 15.9979C55.8709 15.9979 55.8709 15.8565 55.8709 15.5738V14.5941V13.6143V13.1903H56.2949H57.2747H58.2544H58.6785C58.6785 13.1903 58.6785 13.3316 58.6785 13.6143V14.5941V15.5738V15.9979C58.6785 15.9979 58.5371 15.9979 58.2544 15.9979H57.2747H56.2949H55.8709ZM62.8899 15.9979C62.8899 15.9979 62.8899 15.8565 62.8899 15.5738V14.5941V13.6143V13.1903H63.314H64.2937H65.2735H65.6975C65.6975 13.1903 65.6975 13.3316 65.6975 13.6143V14.5941V15.5738V15.9979C65.6975 15.9979 65.5562 15.9979 65.2735 15.9979H64.2937H63.314H62.8899ZM48.8518 14.2431C48.8518 14.2431 48.8518 14.1018 48.8518 13.819V12.8393V11.8596V11.4355H49.2759H50.2556H51.2354H51.6594C51.6594 11.4355 51.6594 11.5768 51.6594 11.8596V12.8393V13.819V14.2431C51.6594 14.2431 51.5181 14.2431 51.2354 14.2431H50.2556H49.2759H48.8518ZM55.8709 14.2431C55.8709 14.2431 55.8709 14.1018 55.8709 13.819V12.8393V11.8596V11.4355H56.2949H57.2747H58.2544H58.6785C58.6785 11.4355 58.6785 11.5768 58.6785 11.8596V12.8393V13.819V14.2431C58.6785 14.2431 58.5371 14.2431 58.2544 14.2431H57.2747H56.2949H55.8709ZM62.8899 14.2431C62.8899 14.2431 62.8899 14.1018 62.8899 13.819V12.8393V11.8596V11.4355H63.314H64.2937H65.2735H65.6975C65.6975 11.4355 65.6975 11.5768 65.6975 11.8596V12.8393V13.819V14.2431C65.6975 14.2431 65.5562 14.2431 65.2735 14.2431H64.2937H63.314H62.8899ZM48.8518 12.4883C48.8518 12.4883 48.8518 12.347 48.8518 12.0643V11.0845V10.1048V9.68073H49.2759H50.2556H51.2354H51.6594C51.6594 9.68073 51.6594 9.82209 51.6594 10.1048V11.0845V12.0643V12.4883C51.6594 12.4883 51.5181 12.4883 51.2354 12.4883H50.2556H49.2759H48.8518ZM55.8709 12.4883C55.8709 12.4883 55.8709 12.347 55.8709 12.0643V11.0845V10.1048V9.68073H56.2949H57.2747H58.2544H58.6785C58.6785 9.68073 58.6785 9.82209 58.6785 10.1048V11.0845V12.0643V12.4883C58.6785 12.4883 58.5371 12.4883 58.2544 12.4883H57.2747H56.2949H55.8709ZM62.8899 12.4883C62.8899 12.4883 62.8899 12.347 62.8899 12.0643V11.0845V10.1048V9.68073H63.314H64.2937H65.2735H65.6975C65.6975 9.68073 65.6975 9.82209 65.6975 10.1048V11.0845V12.0643V12.4883C65.6975 12.4883 65.5562 12.4883 65.2735 12.4883H64.2937H63.314H62.8899ZM48.8518 10.7336C48.8518 10.7336 48.8518 10.5922 48.8518 10.3095V9.32978V8.35004V7.92597H49.2759H50.2556H51.2354H51.6594C51.6594 7.92597 51.6594 8.06733 51.6594 8.35004V9.32978V10.3095V10.7336C51.6594 10.7336 51.5181 10.7336 51.2354 10.7336H50.2556H49.2759H48.8518ZM55.8709 10.7336C55.8709 10.7336 55.8709 10.5922 55.8709 10.3095V9.32978V8.35004V7.92597H56.2949H57.2747H58.2544H58.6785C58.6785 7.92597 58.6785 8.06733 58.6785 8.35004V9.32978V10.3095V10.7336C58.6785 10.7336 58.5371 10.7336 58.2544 10.7336H57.2747H56.2949H55.8709ZM62.8899 10.7336C62.8899 10.7336 62.8899 10.5922 62.8899 10.3095V9.32978V8.35004V7.92597H63.314H64.2937H65.2735H65.6975C65.6975 7.92597 65.6975 8.06733 65.6975 8.35004V9.32978V10.3095V10.7336C65.6975 10.7336 65.5562 10.7336 65.2735 10.7336H64.2937H63.314H62.8899ZM48.8518 8.97883C48.8518 8.97883 48.8518 8.83747 48.8518 8.55476V7.57502V6.59528V6.17121H49.2759H50.2556H51.2354H51.6594C51.6594 6.17121 51.6594 6.31257 51.6594 6.59528V7.57502V8.55476V8.97883C51.6594 8.97883 51.5181 8.97883 51.2354 8.97883H50.2556H49.2759H48.8518ZM55.8709 8.97883C55.8709 8.97883 55.8709 8.83747 55.8709 8.55476V7.57502V6.59528V6.17121H56.2949H57.2747H58.2544H58.6785C58.6785 6.17121 58.6785 6.31257 58.6785 6.59528V7.57502V8.55476V8.97883C58.6785 8.97883 58.5371 8.97883 58.2544 8.97883H57.2747H56.2949H55.8709ZM62.8899 8.97883C62.8899 8.97883 62.8899 8.83747 62.8899 8.55476V7.57502V6.59528V6.17121H63.314H64.2937H65.2735H65.6975C65.6975 6.17121 65.6975 6.31257 65.6975 6.59528V7.57502V8.55476V8.97883C65.6975 8.97883 65.5562 8.97883 65.2735 8.97883H64.2937H63.314H62.8899ZM69.0213 26.5264C69.0213 26.5264 69.0213 26.3851 69.0213 26.1024V25.1226V24.1429V23.7188H69.4454H70.4251H71.4048H71.8289C71.8289 23.7188 71.8289 23.8602 71.8289 24.1429V25.1226V26.1024V26.5264C71.8289 26.5264 71.6875 26.5264 71.4048 26.5264H70.4251H69.4454H69.0213ZM70.776 26.5264C70.776 26.5264 70.776 26.3851 70.776 26.1024V25.1226V24.1429V23.7188H71.2001H72.1799H73.1596H73.5837C73.5837 23.7188 73.5837 23.8602 73.5837 24.1429V25.1226V26.1024V26.5264C73.5837 26.5264 73.4423 26.5264 73.1596 26.5264H72.1799H71.2001H70.776ZM72.5308 26.5264C72.5308 26.5264 72.5308 26.3851 72.5308 26.1024V25.1226V24.1429V23.7188H72.9549H73.9346H74.9144H75.3384C75.3384 23.7188 75.3384 23.8602 75.3384 24.1429V25.1226V26.1024V26.5264C75.3384 26.5264 75.1971 26.5264 74.9144 26.5264H73.9346H72.9549H72.5308ZM67.2665 24.7717C67.2665 24.7717 67.2665 24.6303 67.2665 24.3476V23.3679V22.3881V21.9641H67.6906H68.6703H69.6501H70.0741C70.0741 21.9641 70.0741 22.1054 70.0741 22.3881V23.3679V24.3476V24.7717C70.0741 24.7717 69.9328 24.7717 69.6501 24.7717H68.6703H67.6906H67.2665ZM74.2856 24.7717C74.2856 24.7717 74.2856 24.6303 74.2856 24.3476V23.3679V22.3881V21.9641H74.7096H75.6894H76.6691H77.0932C77.0932 21.9641 77.0932 22.1054 77.0932 22.3881V23.3679V24.3476V24.7717C77.0932 24.7717 76.9518 24.7717 76.6691 24.7717H75.6894H74.7096H74.2856ZM67.2665 23.0169C67.2665 23.0169 67.2665 22.8756 67.2665 22.5928V21.6131V20.6334V20.2093H67.6906H68.6703H69.6501H70.0741C70.0741 20.2093 70.0741 20.3506 70.0741 20.6334V21.6131V22.5928V23.0169C70.0741 23.0169 69.9328 23.0169 69.6501 23.0169H68.6703H67.6906H67.2665ZM67.2665 21.2621C67.2665 21.2621 67.2665 21.1208 67.2665 20.8381V19.8583V18.8786V18.4545H67.6906H68.6703H69.6501H70.0741C70.0741 18.4545 70.0741 18.5959 70.0741 18.8786V19.8583V20.8381V21.2621C70.0741 21.2621 69.9328 21.2621 69.6501 21.2621H68.6703H67.6906H67.2665ZM67.2665 19.5074C67.2665 19.5074 67.2665 19.366 67.2665 19.0833V18.1036V17.1238V16.6998H67.6906H68.6703H69.6501H70.0741C70.0741 16.6998 70.0741 16.8411 70.0741 17.1238V18.1036V19.0833V19.5074C70.0741 19.5074 69.9328 19.5074 69.6501 19.5074H68.6703H67.6906H67.2665ZM69.0213 19.5074C69.0213 19.5074 69.0213 19.366 69.0213 19.0833V18.1036V17.1238V16.6998H69.4454H70.4251H71.4048H71.8289C71.8289 16.6998 71.8289 16.8411 71.8289 17.1238V18.1036V19.0833V19.5074C71.8289 19.5074 71.6875 19.5074 71.4048 19.5074H70.4251H69.4454H69.0213ZM70.776 19.5074C70.776 19.5074 70.776 19.366 70.776 19.0833V18.1036V17.1238V16.6998H71.2001H72.1799H73.1596H73.5837C73.5837 16.6998 73.5837 16.8411 73.5837 17.1238V18.1036V19.0833V19.5074C73.5837 19.5074 73.4423 19.5074 73.1596 19.5074H72.1799H71.2001H70.776ZM72.5308 19.5074C72.5308 19.5074 72.5308 19.366 72.5308 19.0833V18.1036V17.1238V16.6998H72.9549H73.9346H74.9144H75.3384C75.3384 16.6998 75.3384 16.8411 75.3384 17.1238V18.1036V19.0833V19.5074C75.3384 19.5074 75.1971 19.5074 74.9144 19.5074H73.9346H72.9549H72.5308ZM74.2856 19.5074C74.2856 19.5074 74.2856 19.366 74.2856 19.0833V18.1036V17.1238V16.6998H74.7096H75.6894H76.6691H77.0932C77.0932 16.6998 77.0932 16.8411 77.0932 17.1238V18.1036V19.0833V19.5074C77.0932 19.5074 76.9518 19.5074 76.6691 19.5074H75.6894H74.7096H74.2856ZM67.2665 17.7526C67.2665 17.7526 67.2665 17.6113 67.2665 17.3286V16.3488V15.3691V14.945H67.6906H68.6703H69.6501H70.0741C70.0741 14.945 70.0741 15.0864 70.0741 15.3691V16.3488V17.3286V17.7526C70.0741 17.7526 69.9328 17.7526 69.6501 17.7526H68.6703H67.6906H67.2665ZM74.2856 17.7526C74.2856 17.7526 74.2856 17.6113 74.2856 17.3286V16.3488V15.3691V14.945H74.7096H75.6894H76.6691H77.0932C77.0932 14.945 77.0932 15.0864 77.0932 15.3691V16.3488V17.3286V17.7526C77.0932 17.7526 76.9518 17.7526 76.6691 17.7526H75.6894H74.7096H74.2856ZM67.2665 15.9979C67.2665 15.9979 67.2665 15.8565 67.2665 15.5738V14.5941V13.6143V13.1903H67.6906H68.6703H69.6501H70.0741C70.0741 13.1903 70.0741 13.3316 70.0741 13.6143V14.5941V15.5738V15.9979C70.0741 15.9979 69.9328 15.9979 69.6501 15.9979H68.6703H67.6906H67.2665ZM74.2856 15.9979C74.2856 15.9979 74.2856 15.8565 74.2856 15.5738V14.5941V13.6143V13.1903H74.7096H75.6894H76.6691H77.0932C77.0932 13.1903 77.0932 13.3316 77.0932 13.6143V14.5941V15.5738V15.9979C77.0932 15.9979 76.9518 15.9979 76.6691 15.9979H75.6894H74.7096H74.2856ZM69.0213 14.2431C69.0213 14.2431 69.0213 14.1018 69.0213 13.819V12.8393V11.8596V11.4355H69.4454H70.4251H71.4048H71.8289C71.8289 11.4355 71.8289 11.5768 71.8289 11.8596V12.8393V13.819V14.2431C71.8289 14.2431 71.6875 14.2431 71.4048 14.2431H70.4251H69.4454H69.0213ZM70.776 14.2431C70.776 14.2431 70.776 14.1018 70.776 13.819V12.8393V11.8596V11.4355H71.2001H72.1799H73.1596H73.5837C73.5837 11.4355 73.5837 11.5768 73.5837 11.8596V12.8393V13.819V14.2431C73.5837 14.2431 73.4423 14.2431 73.1596 14.2431H72.1799H71.2001H70.776ZM72.5308 14.2431C72.5308 14.2431 72.5308 14.1018 72.5308 13.819V12.8393V11.8596V11.4355H72.9549H73.9346H74.9144H75.3384C75.3384 11.4355 75.3384 11.5768 75.3384 11.8596V12.8393V13.819V14.2431C75.3384 14.2431 75.1971 14.2431 74.9144 14.2431H73.9346H72.9549H72.5308ZM79.5636 26.5264C79.5636 26.5264 79.5636 26.3851 79.5636 26.1024V25.1226V24.1429V23.7188H79.9876H80.9674H81.9471H82.3712C82.3712 23.7188 82.3712 23.8602 82.3712 24.1429V25.1226V26.1024V26.5264C82.3712 26.5264 82.2298 26.5264 81.9471 26.5264H80.9674H79.9876H79.5636ZM81.3183 26.5264C81.3183 26.5264 81.3183 26.3851 81.3183 26.1024V25.1226V24.1429V23.7188H81.7424H82.7221H83.7019H84.1259C84.1259 23.7188 84.1259 23.8602 84.1259 24.1429V25.1226V26.1024V26.5264C84.1259 26.5264 83.9846 26.5264 83.7019 26.5264H82.7221H81.7424H81.3183ZM84.8278 26.5264C84.8278 26.5264 84.8278 26.3851 84.8278 26.1024V25.1226V24.1429V23.7188H85.2519H86.2316H87.2114H87.6354C87.6354 23.7188 87.6354 23.8602 87.6354 24.1429V25.1226V26.1024V26.5264C87.6354 26.5264 87.4941 26.5264 87.2114 26.5264H86.2316H85.2519H84.8278ZM77.8088 24.7717C77.8088 24.7717 77.8088 24.6303 77.8088 24.3476V23.3679V22.3881V21.9641H78.2329H79.2126H80.1923H80.6164C80.6164 21.9641 80.6164 22.1054 80.6164 22.3881V23.3679V24.3476V24.7717C80.6164 24.7717 80.4751 24.7717 80.1923 24.7717H79.2126H78.2329H77.8088ZM83.0731 24.7717C83.0731 24.7717 83.0731 24.6303 83.0731 24.3476V23.3679V22.3881V21.9641H83.4971H84.4769H85.4566H85.8807C85.8807 21.9641 85.8807 22.1054 85.8807 22.3881V23.3679V24.3476V24.7717C85.8807 24.7717 85.7393 24.7717 85.4566 24.7717H84.4769H83.4971H83.0731ZM84.8278 24.7717C84.8278 24.7717 84.8278 24.6303 84.8278 24.3476V23.3679V22.3881V21.9641H85.2519H86.2316H87.2114H87.6354C87.6354 21.9641 87.6354 22.1054 87.6354 22.3881V23.3679V24.3476V24.7717C87.6354 24.7717 87.4941 24.7717 87.2114 24.7717H86.2316H85.2519H84.8278ZM77.8088 23.0169C77.8088 23.0169 77.8088 22.8756 77.8088 22.5928V21.6131V20.6334V20.2093H78.2329H79.2126H80.1923H80.6164C80.6164 20.2093 80.6164 20.3506 80.6164 20.6334V21.6131V22.5928V23.0169C80.6164 23.0169 80.4751 23.0169 80.1923 23.0169H79.2126H78.2329H77.8088ZM84.8278 23.0169C84.8278 23.0169 84.8278 22.8756 84.8278 22.5928V21.6131V20.6334V20.2093H85.2519H86.2316H87.2114H87.6354C87.6354 20.2093 87.6354 20.3506 87.6354 20.6334V21.6131V22.5928V23.0169C87.6354 23.0169 87.4941 23.0169 87.2114 23.0169H86.2316H85.2519H84.8278ZM79.5636 21.2621C79.5636 21.2621 79.5636 21.1208 79.5636 20.8381V19.8583V18.8786V18.4545H79.9876H80.9674H81.9471H82.3712C82.3712 18.4545 82.3712 18.5959 82.3712 18.8786V19.8583V20.8381V21.2621C82.3712 21.2621 82.2298 21.2621 81.9471 21.2621H80.9674H79.9876H79.5636ZM81.3183 21.2621C81.3183 21.2621 81.3183 21.1208 81.3183 20.8381V19.8583V18.8786V18.4545H81.7424H82.7221H83.7019H84.1259C84.1259 18.4545 84.1259 18.5959 84.1259 18.8786V19.8583V20.8381V21.2621C84.1259 21.2621 83.9846 21.2621 83.7019 21.2621H82.7221H81.7424H81.3183ZM83.0731 21.2621C83.0731 21.2621 83.0731 21.1208 83.0731 20.8381V19.8583V18.8786V18.4545H83.4971H84.4769H85.4566H85.8807C85.8807 18.4545 85.8807 18.5959 85.8807 18.8786V19.8583V20.8381V21.2621C85.8807 21.2621 85.7393 21.2621 85.4566 21.2621H84.4769H83.4971H83.0731ZM84.8278 21.2621C84.8278 21.2621 84.8278 21.1208 84.8278 20.8381V19.8583V18.8786V18.4545H85.2519H86.2316H87.2114H87.6354C87.6354 18.4545 87.6354 18.5959 87.6354 18.8786V19.8583V20.8381V21.2621C87.6354 21.2621 87.4941 21.2621 87.2114 21.2621H86.2316H85.2519H84.8278ZM84.8278 19.5074C84.8278 19.5074 84.8278 19.366 84.8278 19.0833V18.1036V17.1238V16.6998H85.2519H86.2316H87.2114H87.6354C87.6354 16.6998 87.6354 16.8411 87.6354 17.1238V18.1036V19.0833V19.5074C87.6354 19.5074 87.4941 19.5074 87.2114 19.5074H86.2316H85.2519H84.8278ZM84.8278 17.7526C84.8278 17.7526 84.8278 17.6113 84.8278 17.3286V16.3488V15.3691V14.945H85.2519H86.2316H87.2114H87.6354C87.6354 14.945 87.6354 15.0864 87.6354 15.3691V16.3488V17.3286V17.7526C87.6354 17.7526 87.4941 17.7526 87.2114 17.7526H86.2316H85.2519H84.8278ZM77.8088 15.9979C77.8088 15.9979 77.8088 15.8565 77.8088 15.5738V14.5941V13.6143V13.1903H78.2329H79.2126H80.1923H80.6164C80.6164 13.1903 80.6164 13.3316 80.6164 13.6143V14.5941V15.5738V15.9979C80.6164 15.9979 80.4751 15.9979 80.1923 15.9979H79.2126H78.2329H77.8088ZM84.8278 15.9979C84.8278 15.9979 84.8278 15.8565 84.8278 15.5738V14.5941V13.6143V13.1903H85.2519H86.2316H87.2114H87.6354C87.6354 13.1903 87.6354 13.3316 87.6354 13.6143V14.5941V15.5738V15.9979C87.6354 15.9979 87.4941 15.9979 87.2114 15.9979H86.2316H85.2519H84.8278ZM79.5636 14.2431C79.5636 14.2431 79.5636 14.1018 79.5636 13.819V12.8393V11.8596V11.4355H79.9876H80.9674H81.9471H82.3712C82.3712 11.4355 82.3712 11.5768 82.3712 11.8596V12.8393V13.819V14.2431C82.3712 14.2431 82.2298 14.2431 81.9471 14.2431H80.9674H79.9876H79.5636ZM81.3183 14.2431C81.3183 14.2431 81.3183 14.1018 81.3183 13.819V12.8393V11.8596V11.4355H81.7424H82.7221H83.7019H84.1259C84.1259 11.4355 84.1259 11.5768 84.1259 11.8596V12.8393V13.819V14.2431C84.1259 14.2431 83.9846 14.2431 83.7019 14.2431H82.7221H81.7424H81.3183ZM83.0731 14.2431C83.0731 14.2431 83.0731 14.1018 83.0731 13.819V12.8393V11.8596V11.4355H83.4971H84.4769H85.4566H85.8807C85.8807 11.4355 85.8807 11.5768 85.8807 11.8596V12.8393V13.819V14.2431C85.8807 14.2431 85.7393 14.2431 85.4566 14.2431H84.4769H83.4971H83.0731ZM92.738 26.5264C92.738 26.5264 92.738 26.3851 92.738 26.1024V25.1226V24.1429V23.7188H93.162H94.1418H95.1215H95.5456C95.5456 23.7188 95.5456 23.8602 95.5456 24.1429V25.1226V26.1024V26.5264C95.5456 26.5264 95.4042 26.5264 95.1215 26.5264H94.1418H93.162H92.738ZM94.4927 26.5264C94.4927 26.5264 94.4927 26.3851 94.4927 26.1024V25.1226V24.1429V23.7188H94.9168H95.8965H96.8763H97.3003C97.3003 23.7188 97.3003 23.8602 97.3003 24.1429V25.1226V26.1024V26.5264C97.3003 26.5264 97.159 26.5264 96.8763 26.5264H95.8965H94.9168H94.4927ZM90.9832 24.7717C90.9832 24.7717 90.9832 24.6303 90.9832 24.3476V23.3679V22.3881V21.9641H91.4073H92.387H93.3667H93.7908C93.7908 21.9641 93.7908 22.1054 93.7908 22.3881V23.3679V24.3476V24.7717C93.7908 24.7717 93.6495 24.7717 93.3667 24.7717H92.387H91.4073H90.9832ZM90.9832 23.0169C90.9832 23.0169 90.9832 22.8756 90.9832 22.5928V21.6131V20.6334V20.2093H91.4073H92.387H93.3667H93.7908C93.7908 20.2093 93.7908 20.3506 93.7908 20.6334V21.6131V22.5928V23.0169C93.7908 23.0169 93.6495 23.0169 93.3667 23.0169H92.387H91.4073H90.9832ZM90.9832 21.2621C90.9832 21.2621 90.9832 21.1208 90.9832 20.8381V19.8583V18.8786V18.4545H91.4073H92.387H93.3667H93.7908C93.7908 18.4545 93.7908 18.5959 93.7908 18.8786V19.8583V20.8381V21.2621C93.7908 21.2621 93.6495 21.2621 93.3667 21.2621H92.387H91.4073H90.9832ZM90.9832 19.5074C90.9832 19.5074 90.9832 19.366 90.9832 19.0833V18.1036V17.1238V16.6998H91.4073H92.387H93.3667H93.7908C93.7908 16.6998 93.7908 16.8411 93.7908 17.1238V18.1036V19.0833V19.5074C93.7908 19.5074 93.6495 19.5074 93.3667 19.5074H92.387H91.4073H90.9832ZM90.9832 17.7526C90.9832 17.7526 90.9832 17.6113 90.9832 17.3286V16.3488V15.3691V14.945H91.4073H92.387H93.3667H93.7908C93.7908 14.945 93.7908 15.0864 93.7908 15.3691V16.3488V17.3286V17.7526C93.7908 17.7526 93.6495 17.7526 93.3667 17.7526H92.387H91.4073H90.9832ZM90.9832 15.9979C90.9832 15.9979 90.9832 15.8565 90.9832 15.5738V14.5941V13.6143V13.1903H91.4073H92.387H93.3667H93.7908C93.7908 13.1903 93.7908 13.3316 93.7908 13.6143V14.5941V15.5738V15.9979C93.7908 15.9979 93.6495 15.9979 93.3667 15.9979H92.387H91.4073H90.9832ZM89.2284 14.2431C89.2284 14.2431 89.2284 14.1018 89.2284 13.819V12.8393V11.8596V11.4355H89.6525H90.6322H91.612H92.0361C92.0361 11.4355 92.0361 11.5768 92.0361 11.8596V12.8393V13.819V14.2431C92.0361 14.2431 91.8947 14.2431 91.612 14.2431H90.6322H89.6525H89.2284ZM90.9832 14.2431C90.9832 14.2431 90.9832 14.1018 90.9832 13.819V12.8393V11.8596V11.4355H91.4073H92.387H93.3667H93.7908C93.7908 11.4355 93.7908 11.5768 93.7908 11.8596V12.8393V13.819V14.2431C93.7908 14.2431 93.6495 14.2431 93.3667 14.2431H92.387H91.4073H90.9832ZM92.738 14.2431C92.738 14.2431 92.738 14.1018 92.738 13.819V12.8393V11.8596V11.4355H93.162H94.1418H95.1215H95.5456C95.5456 11.4355 95.5456 11.5768 95.5456 11.8596V12.8393V13.819V14.2431C95.5456 14.2431 95.4042 14.2431 95.1215 14.2431H94.1418H93.162H92.738ZM94.4927 14.2431C94.4927 14.2431 94.4927 14.1018 94.4927 13.819V12.8393V11.8596V11.4355H94.9168H95.8965H96.8763H97.3003C97.3003 11.4355 97.3003 11.5768 97.3003 11.8596V12.8393V13.819V14.2431C97.3003 14.2431 97.159 14.2431 96.8763 14.2431H95.8965H94.9168H94.4927ZM90.9832 12.4883C90.9832 12.4883 90.9832 12.347 90.9832 12.0643V11.0845V10.1048V9.68073H91.4073H92.387H93.3667H93.7908C93.7908 9.68073 93.7908 9.82209 93.7908 10.1048V11.0845V12.0643V12.4883C93.7908 12.4883 93.6495 12.4883 93.3667 12.4883H92.387H91.4073H90.9832ZM90.9832 10.7336C90.9832 10.7336 90.9832 10.5922 90.9832 10.3095V9.32978V8.35004V7.92597H91.4073H92.387H93.3667H93.7908C93.7908 7.92597 93.7908 8.06733 93.7908 8.35004V9.32978V10.3095V10.7336C93.7908 10.7336 93.6495 10.7336 93.3667 10.7336H92.387H91.4073H90.9832ZM98.8745 26.5264C98.8745 26.5264 98.8745 26.3851 98.8745 26.1024V25.1226V24.1429V23.7188H99.2985H100.278H101.258H101.682C101.682 23.7188 101.682 23.8602 101.682 24.1429V25.1226V26.1024V26.5264C101.682 26.5264 101.541 26.5264 101.258 26.5264H100.278H99.2985H98.8745ZM105.894 26.5264C105.894 26.5264 105.894 26.3851 105.894 26.1024V25.1226V24.1429V23.7188H106.318H107.297H108.277H108.701C108.701 23.7188 108.701 23.8602 108.701 24.1429V25.1226V26.1024V26.5264C108.701 26.5264 108.56 26.5264 108.277 26.5264H107.297H106.318H105.894ZM98.8745 24.7717C98.8745 24.7717 98.8745 24.6303 98.8745 24.3476V23.3679V22.3881V21.9641H99.2985H100.278H101.258H101.682C101.682 21.9641 101.682 22.1054 101.682 22.3881V23.3679V24.3476V24.7717C101.682 24.7717 101.541 24.7717 101.258 24.7717H100.278H99.2985H98.8745ZM105.894 24.7717C105.894 24.7717 105.894 24.6303 105.894 24.3476V23.3679V22.3881V21.9641H106.318H107.297H108.277H108.701C108.701 21.9641 108.701 22.1054 108.701 22.3881V23.3679V24.3476V24.7717C108.701 24.7717 108.56 24.7717 108.277 24.7717H107.297H106.318H105.894ZM98.8745 23.0169C98.8745 23.0169 98.8745 22.8756 98.8745 22.5928V21.6131V20.6334V20.2093H99.2985H100.278H101.258H101.682C101.682 20.2093 101.682 20.3506 101.682 20.6334V21.6131V22.5928V23.0169C101.682 23.0169 101.541 23.0169 101.258 23.0169H100.278H99.2985H98.8745ZM105.894 23.0169C105.894 23.0169 105.894 22.8756 105.894 22.5928V21.6131V20.6334V20.2093H106.318H107.297H108.277H108.701C108.701 20.2093 108.701 20.3506 108.701 20.6334V21.6131V22.5928V23.0169C108.701 23.0169 108.56 23.0169 108.277 23.0169H107.297H106.318H105.894ZM98.8745 21.2621C98.8745 21.2621 98.8745 21.1208 98.8745 20.8381V19.8583V18.8786V18.4545H99.2985H100.278H101.258H101.682C101.682 18.4545 101.682 18.5959 101.682 18.8786V19.8583V20.8381V21.2621C101.682 21.2621 101.541 21.2621 101.258 21.2621H100.278H99.2985H98.8745ZM105.894 21.2621C105.894 21.2621 105.894 21.1208 105.894 20.8381V19.8583V18.8786V18.4545H106.318H107.297H108.277H108.701C108.701 18.4545 108.701 18.5959 108.701 18.8786V19.8583V20.8381V21.2621C108.701 21.2621 108.56 21.2621 108.277 21.2621H107.297H106.318H105.894ZM98.8745 19.5074C98.8745 19.5074 98.8745 19.366 98.8745 19.0833V18.1036V17.1238V16.6998H99.2985H100.278H101.258H101.682C101.682 16.6998 101.682 16.8411 101.682 17.1238V18.1036V19.0833V19.5074C101.682 19.5074 101.541 19.5074 101.258 19.5074H100.278H99.2985H98.8745ZM105.894 19.5074C105.894 19.5074 105.894 19.366 105.894 19.0833V18.1036V17.1238V16.6998H106.318H107.297H108.277H108.701C108.701 16.6998 108.701 16.8411 108.701 17.1238V18.1036V19.0833V19.5074C108.701 19.5074 108.56 19.5074 108.277 19.5074H107.297H106.318H105.894ZM98.8745 17.7526C98.8745 17.7526 98.8745 17.6113 98.8745 17.3286V16.3488V15.3691V14.945H99.2985H100.278H101.258H101.682C101.682 14.945 101.682 15.0864 101.682 15.3691V16.3488V17.3286V17.7526C101.682 17.7526 101.541 17.7526 101.258 17.7526H100.278H99.2985H98.8745ZM105.894 17.7526C105.894 17.7526 105.894 17.6113 105.894 17.3286V16.3488V15.3691V14.945H106.318H107.297H108.277H108.701C108.701 14.945 108.701 15.0864 108.701 15.3691V16.3488V17.3286V17.7526C108.701 17.7526 108.56 17.7526 108.277 17.7526H107.297H106.318H105.894ZM98.8745 15.9979C98.8745 15.9979 98.8745 15.8565 98.8745 15.5738V14.5941V13.6143V13.1903H99.2985H100.278H101.258H101.682C101.682 13.1903 101.682 13.3316 101.682 13.6143V14.5941V15.5738V15.9979C101.682 15.9979 101.541 15.9979 101.258 15.9979H100.278H99.2985H98.8745ZM100.629 15.9979C100.629 15.9979 100.629 15.8565 100.629 15.5738V14.5941V13.6143V13.1903H101.053H102.033H103.013H103.437C103.437 13.1903 103.437 13.3316 103.437 13.6143V14.5941V15.5738V15.9979C103.437 15.9979 103.296 15.9979 103.013 15.9979H102.033H101.053H100.629ZM105.894 15.9979C105.894 15.9979 105.894 15.8565 105.894 15.5738V14.5941V13.6143V13.1903H106.318H107.297H108.277H108.701C108.701 13.1903 108.701 13.3316 108.701 13.6143V14.5941V15.5738V15.9979C108.701 15.9979 108.56 15.9979 108.277 15.9979H107.297H106.318H105.894ZM98.8745 14.2431C98.8745 14.2431 98.8745 14.1018 98.8745 13.819V12.8393V11.8596V11.4355H99.2985H100.278H101.258H101.682C101.682 11.4355 101.682 11.5768 101.682 11.8596V12.8393V13.819V14.2431C101.682 14.2431 101.541 14.2431 101.258 14.2431H100.278H99.2985H98.8745ZM102.384 14.2431C102.384 14.2431 102.384 14.1018 102.384 13.819V12.8393V11.8596V11.4355H102.808H103.788H104.768H105.192C105.192 11.4355 105.192 11.5768 105.192 11.8596V12.8393V13.819V14.2431C105.192 14.2431 105.05 14.2431 104.768 14.2431H103.788H102.808H102.384ZM104.139 14.2431C104.139 14.2431 104.139 14.1018 104.139 13.819V12.8393V11.8596V11.4355H104.563H105.543H106.522H106.946C106.946 11.4355 106.946 11.5768 106.946 11.8596V12.8393V13.819V14.2431C106.946 14.2431 106.805 14.2431 106.522 14.2431H105.543H104.563H104.139ZM98.8745 12.4883C98.8745 12.4883 98.8745 12.347 98.8745 12.0643V11.0845V10.1048V9.68073H99.2985H100.278H101.258H101.682C101.682 9.68073 101.682 9.82209 101.682 10.1048V11.0845V12.0643V12.4883C101.682 12.4883 101.541 12.4883 101.258 12.4883H100.278H99.2985H98.8745ZM98.8745 10.7336C98.8745 10.7336 98.8745 10.5922 98.8745 10.3095V9.32978V8.35004V7.92597H99.2985H100.278H101.258H101.682C101.682 7.92597 101.682 8.06733 101.682 8.35004V9.32978V10.3095V10.7336C101.682 10.7336 101.541 10.7336 101.258 10.7336H100.278H99.2985H98.8745ZM98.8745 8.97883C98.8745 8.97883 98.8745 8.83747 98.8745 8.55476V7.57502V6.59528V6.17121H99.2985H100.278H101.258H101.682C101.682 6.17121 101.682 6.31257 101.682 6.59528V7.57502V8.55476V8.97883C101.682 8.97883 101.541 8.97883 101.258 8.97883H100.278H99.2985H98.8745ZM98.8745 7.22407C98.8745 7.22407 98.8745 7.08271 98.8745 6.8V5.82026V4.84052V4.41645H99.2985H100.278H101.258H101.682C101.682 4.41645 101.682 4.55781 101.682 4.84052V5.82026V6.8V7.22407C101.682 7.22407 101.541 7.22407 101.258 7.22407H100.278H99.2985H98.8745ZM112.923 26.5264C112.923 26.5264 112.923 26.3851 112.923 26.1024V25.1226V24.1429V23.7188H113.347H114.327H115.306H115.73C115.73 23.7188 115.73 23.8602 115.73 24.1429V25.1226V26.1024V26.5264C115.73 26.5264 115.589 26.5264 115.306 26.5264H114.327H113.347H112.923ZM114.678 26.5264C114.678 26.5264 114.678 26.3851 114.678 26.1024V25.1226V24.1429V23.7188H115.102H116.081H117.061H117.485C117.485 23.7188 117.485 23.8602 117.485 24.1429V25.1226V26.1024V26.5264C117.485 26.5264 117.344 26.5264 117.061 26.5264H116.081H115.102H114.678ZM116.432 26.5264C116.432 26.5264 116.432 26.3851 116.432 26.1024V25.1226V24.1429V23.7188H116.856H117.836H118.816H119.24C119.24 23.7188 119.24 23.8602 119.24 24.1429V25.1226V26.1024V26.5264C119.24 26.5264 119.099 26.5264 118.816 26.5264H117.836H116.856H116.432ZM111.168 24.7717C111.168 24.7717 111.168 24.6303 111.168 24.3476V23.3679V22.3881V21.9641H111.592H112.572H113.552H113.976C113.976 21.9641 113.976 22.1054 113.976 22.3881V23.3679V24.3476V24.7717C113.976 24.7717 113.834 24.7717 113.552 24.7717H112.572H111.592H111.168ZM118.187 24.7717C118.187 24.7717 118.187 24.6303 118.187 24.3476V23.3679V22.3881V21.9641H118.611H119.591H120.571H120.995C120.995 21.9641 120.995 22.1054 120.995 22.3881V23.3679V24.3476V24.7717C120.995 24.7717 120.853 24.7717 120.571 24.7717H119.591H118.611H118.187ZM111.168 23.0169C111.168 23.0169 111.168 22.8756 111.168 22.5928V21.6131V20.6334V20.2093H111.592H112.572H113.552H113.976C113.976 20.2093 113.976 20.3506 113.976 20.6334V21.6131V22.5928V23.0169C113.976 23.0169 113.834 23.0169 113.552 23.0169H112.572H111.592H111.168ZM111.168 21.2621C111.168 21.2621 111.168 21.1208 111.168 20.8381V19.8583V18.8786V18.4545H111.592H112.572H113.552H113.976C113.976 18.4545 113.976 18.5959 113.976 18.8786V19.8583V20.8381V21.2621C113.976 21.2621 113.834 21.2621 113.552 21.2621H112.572H111.592H111.168ZM111.168 19.5074C111.168 19.5074 111.168 19.366 111.168 19.0833V18.1036V17.1238V16.6998H111.592H112.572H113.552H113.976C113.976 16.6998 113.976 16.8411 113.976 17.1238V18.1036V19.0833V19.5074C113.976 19.5074 113.834 19.5074 113.552 19.5074H112.572H111.592H111.168ZM112.923 19.5074C112.923 19.5074 112.923 19.366 112.923 19.0833V18.1036V17.1238V16.6998H113.347H114.327H115.306H115.73C115.73 16.6998 115.73 16.8411 115.73 17.1238V18.1036V19.0833V19.5074C115.73 19.5074 115.589 19.5074 115.306 19.5074H114.327H113.347H112.923ZM114.678 19.5074C114.678 19.5074 114.678 19.366 114.678 19.0833V18.1036V17.1238V16.6998H115.102H116.081H117.061H117.485C117.485 16.6998 117.485 16.8411 117.485 17.1238V18.1036V19.0833V19.5074C117.485 19.5074 117.344 19.5074 117.061 19.5074H116.081H115.102H114.678ZM116.432 19.5074C116.432 19.5074 116.432 19.366 116.432 19.0833V18.1036V17.1238V16.6998H116.856H117.836H118.816H119.24C119.24 16.6998 119.24 16.8411 119.24 17.1238V18.1036V19.0833V19.5074C119.24 19.5074 119.099 19.5074 118.816 19.5074H117.836H116.856H116.432ZM118.187 19.5074C118.187 19.5074 118.187 19.366 118.187 19.0833V18.1036V17.1238V16.6998H118.611H119.591H120.571H120.995C120.995 16.6998 120.995 16.8411 120.995 17.1238V18.1036V19.0833V19.5074C120.995 19.5074 120.853 19.5074 120.571 19.5074H119.591H118.611H118.187ZM111.168 17.7526C111.168 17.7526 111.168 17.6113 111.168 17.3286V16.3488V15.3691V14.945H111.592H112.572H113.552H113.976C113.976 14.945 113.976 15.0864 113.976 15.3691V16.3488V17.3286V17.7526C113.976 17.7526 113.834 17.7526 113.552 17.7526H112.572H111.592H111.168ZM118.187 17.7526C118.187 17.7526 118.187 17.6113 118.187 17.3286V16.3488V15.3691V14.945H118.611H119.591H120.571H120.995C120.995 14.945 120.995 15.0864 120.995 15.3691V16.3488V17.3286V17.7526C120.995 17.7526 120.853 17.7526 120.571 17.7526H119.591H118.611H118.187ZM111.168 15.9979C111.168 15.9979 111.168 15.8565 111.168 15.5738V14.5941V13.6143V13.1903H111.592H112.572H113.552H113.976C113.976 13.1903 113.976 13.3316 113.976 13.6143V14.5941V15.5738V15.9979C113.976 15.9979 113.834 15.9979 113.552 15.9979H112.572H111.592H111.168ZM118.187 15.9979C118.187 15.9979 118.187 15.8565 118.187 15.5738V14.5941V13.6143V13.1903H118.611H119.591H120.571H120.995C120.995 13.1903 120.995 13.3316 120.995 13.6143V14.5941V15.5738V15.9979C120.995 15.9979 120.853 15.9979 120.571 15.9979H119.591H118.611H118.187ZM112.923 14.2431C112.923 14.2431 112.923 14.1018 112.923 13.819V12.8393V11.8596V11.4355H113.347H114.327H115.306H115.73C115.73 11.4355 115.73 11.5768 115.73 11.8596V12.8393V13.819V14.2431C115.73 14.2431 115.589 14.2431 115.306 14.2431H114.327H113.347H112.923ZM114.678 14.2431C114.678 14.2431 114.678 14.1018 114.678 13.819V12.8393V11.8596V11.4355H115.102H116.081H117.061H117.485C117.485 11.4355 117.485 11.5768 117.485 11.8596V12.8393V13.819V14.2431C117.485 14.2431 117.344 14.2431 117.061 14.2431H116.081H115.102H114.678ZM116.432 14.2431C116.432 14.2431 116.432 14.1018 116.432 13.819V12.8393V11.8596V11.4355H116.856H117.836H118.816H119.24C119.24 11.4355 119.24 11.5768 119.24 11.8596V12.8393V13.819V14.2431C119.24 14.2431 119.099 14.2431 118.816 14.2431H117.836H116.856H116.432ZM122.588 26.5264C122.588 26.5264 122.588 26.3851 122.588 26.1024V25.1226V24.1429V23.7188H123.012H123.992H124.971H125.395C125.395 23.7188 125.395 23.8602 125.395 24.1429V25.1226V26.1024V26.5264C125.395 26.5264 125.254 26.5264 124.971 26.5264H123.992H123.012H122.588ZM122.588 24.7717C122.588 24.7717 122.588 24.6303 122.588 24.3476V23.3679V22.3881V21.9641H123.012H123.992H124.971H125.395C125.395 21.9641 125.395 22.1054 125.395 22.3881V23.3679V24.3476V24.7717C125.395 24.7717 125.254 24.7717 124.971 24.7717H123.992H123.012H122.588ZM122.588 23.0169C122.588 23.0169 122.588 22.8756 122.588 22.5928V21.6131V20.6334V20.2093H123.012H123.992H124.971H125.395C125.395 20.2093 125.395 20.3506 125.395 20.6334V21.6131V22.5928V23.0169C125.395 23.0169 125.254 23.0169 124.971 23.0169H123.992H123.012H122.588ZM122.588 21.2621C122.588 21.2621 122.588 21.1208 122.588 20.8381V19.8583V18.8786V18.4545H123.012H123.992H124.971H125.395C125.395 18.4545 125.395 18.5959 125.395 18.8786V19.8583V20.8381V21.2621C125.395 21.2621 125.254 21.2621 124.971 21.2621H123.992H123.012H122.588ZM122.588 19.5074C122.588 19.5074 122.588 19.366 122.588 19.0833V18.1036V17.1238V16.6998H123.012H123.992H124.971H125.395C125.395 16.6998 125.395 16.8411 125.395 17.1238V18.1036V19.0833V19.5074C125.395 19.5074 125.254 19.5074 124.971 19.5074H123.992H123.012H122.588ZM122.588 17.7526C122.588 17.7526 122.588 17.6113 122.588 17.3286V16.3488V15.3691V14.945H123.012H123.992H124.971H125.395C125.395 14.945 125.395 15.0864 125.395 15.3691V16.3488V17.3286V17.7526C125.395 17.7526 125.254 17.7526 124.971 17.7526H123.992H123.012H122.588ZM127.852 17.7526C127.852 17.7526 127.852 17.6113 127.852 17.3286V16.3488V15.3691V14.945H128.276H129.256H130.236H130.66C130.66 14.945 130.66 15.0864 130.66 15.3691V16.3488V17.3286V17.7526C130.66 17.7526 130.518 17.7526 130.236 17.7526H129.256H128.276H127.852ZM122.588 15.9979C122.588 15.9979 122.588 15.8565 122.588 15.5738V14.5941V13.6143V13.1903H123.012H123.992H124.971H125.395C125.395 13.1903 125.395 13.3316 125.395 13.6143V14.5941V15.5738V15.9979C125.395 15.9979 125.254 15.9979 124.971 15.9979H123.992H123.012H122.588ZM127.852 15.9979C127.852 15.9979 127.852 15.8565 127.852 15.5738V14.5941V13.6143V13.1903H128.276H129.256H130.236H130.66C130.66 13.1903 130.66 13.3316 130.66 13.6143V14.5941V15.5738V15.9979C130.66 15.9979 130.518 15.9979 130.236 15.9979H129.256H128.276H127.852ZM124.342 14.2431C124.342 14.2431 124.342 14.1018 124.342 13.819V12.8393V11.8596V11.4355H124.767H125.746H126.726H127.15C127.15 11.4355 127.15 11.5768 127.15 11.8596V12.8393V13.819V14.2431C127.15 14.2431 127.009 14.2431 126.726 14.2431H125.746H124.767H124.342ZM126.097 14.2431C126.097 14.2431 126.097 14.1018 126.097 13.819V12.8393V11.8596V11.4355H126.521H127.501H128.481H128.905C128.905 11.4355 128.905 11.5768 128.905 11.8596V12.8393V13.819V14.2431C128.905 14.2431 128.764 14.2431 128.481 14.2431H127.501H126.521H126.097Z" fill="#141412"/>
<path d="M134.572 5.8087H135.704C136.106 5.8087 136.422 5.92762 136.651 6.16546C136.881 6.40329 136.996 6.74774 136.996 7.19881V7.7893C136.996 8.04353 136.943 8.25676 136.836 8.42899C136.729 8.60122 136.578 8.72423 136.381 8.79804V8.83495C136.586 8.89236 136.738 9.01128 136.836 9.1917C136.943 9.36393 136.996 9.57306 136.996 9.81909V10.6064C136.996 10.7622 137 10.9017 137.008 11.0247C137.025 11.1395 137.049 11.2748 137.082 11.4306V11.4675H136.098C136.065 11.2953 136.045 11.1477 136.036 11.0247C136.028 10.9017 136.024 10.7622 136.024 10.6064V9.57306C136.024 9.45004 135.995 9.35983 135.938 9.30242C135.889 9.24501 135.811 9.21631 135.704 9.21631H135.544V11.4675H134.572V5.8087ZM135.544 6.59602V8.42899H135.704C135.811 8.42899 135.889 8.39618 135.938 8.33058C135.995 8.26497 136.024 8.17065 136.024 8.04763V7.00198C136.024 6.86256 135.995 6.76004 135.938 6.69444C135.889 6.62883 135.811 6.59602 135.704 6.59602H135.544ZM132.321 8.09684C132.321 7.45715 132.399 6.89126 132.555 6.39919C132.719 5.90712 132.949 5.49706 133.244 5.16901C133.539 4.83276 133.896 4.58262 134.314 4.4186C134.732 4.24638 135.196 4.16026 135.704 4.16026C136.221 4.16026 136.692 4.24638 137.119 4.4186C137.554 4.58262 137.927 4.83276 138.238 5.16901C138.55 5.49706 138.792 5.90712 138.964 6.39919C139.136 6.89126 139.223 7.45715 139.223 8.09684V9.1917C139.223 9.8396 139.136 10.4096 138.964 10.9017C138.792 11.3855 138.55 11.7956 138.238 12.1318C137.927 12.4599 137.554 12.71 137.119 12.8822C136.692 13.0545 136.221 13.1406 135.704 13.1406C135.196 13.1406 134.732 13.0545 134.314 12.8822C133.896 12.71 133.539 12.4599 133.244 12.1318C132.949 11.8038 132.719 11.3937 132.555 10.9017C132.399 10.4096 132.321 9.8396 132.321 9.1917V8.09684ZM135.729 12.3902C136.106 12.3902 136.451 12.3287 136.762 12.2056C137.074 12.0826 137.34 11.894 137.562 11.6398C137.791 11.3773 137.968 11.0452 138.091 10.6433C138.222 10.2415 138.288 9.76169 138.288 9.204V8.09684C138.288 7.53916 138.222 7.05939 138.091 6.65753C137.968 6.25567 137.791 5.92762 137.562 5.67339C137.34 5.41095 137.074 5.21822 136.762 5.0952C136.451 4.97218 136.106 4.91067 135.729 4.91067C135.368 4.91067 135.032 4.97218 134.72 5.0952C134.417 5.21002 134.158 5.39864 133.945 5.66108C133.732 5.91532 133.564 6.24747 133.441 6.65753C133.318 7.05939 133.256 7.53916 133.256 8.09684V9.204C133.256 9.76169 133.318 10.2415 133.441 10.6433C133.564 11.0452 133.732 11.3773 133.945 11.6398C134.158 11.894 134.417 12.0826 134.72 12.2056C135.032 12.3287 135.368 12.3902 135.729 12.3902Z" fill="#141412"/>
</svg>
